<svg xmlns="http://www.w3.org/2000/svg" xmlns:xlink="http://www.w3.org/1999/xlink" width="500" zoomAndPan="magnify" viewBox="0 0 375 374.999991" height="500" preserveAspectRatio="xMidYMid meet" version="1.0"><defs><clipPath id="53d058dc22"><path d="M 29.527344 29 L 345 29 L 345 345 L 29.527344 345 Z M 29.527344 29 " clip-rule="nonzero"/></clipPath><clipPath id="a3fdbb1780"><path d="M 29.527344 29 L 345 29 L 345 345 L 29.527344 345 Z M 29.527344 29 " clip-rule="nonzero"/></clipPath></defs><rect x="-37.5" width="450" fill="#ffffff" y="-37.499999" height="449.999989" fill-opacity="1"/><rect x="-37.5" width="450" fill="#ffffff" y="-37.499999" height="449.999989" fill-opacity="1"/><g clip-path="url(#53d058dc22)"><path fill="#5271ff" d="M 342.050781 32.140625 C 339.914062 30.003906 336.710938 29.257812 333.832031 30.21875 L 34.972656 129.855469 C 31.875 130.871094 29.6875 133.699219 29.527344 136.953125 C 29.367188 140.210938 31.128906 143.253906 34.0625 144.691406 L 166.683594 207.507812 L 229.496094 340.125 C 230.832031 342.953125 233.660156 344.714844 236.753906 344.714844 C 236.914062 344.714844 237.074219 344.714844 237.234375 344.714844 C 240.492188 344.503906 243.320312 342.367188 244.332031 339.273438 L 343.96875 40.414062 C 344.929688 37.476562 344.183594 34.273438 342.050781 32.140625 Z M 342.050781 32.140625 " fill-opacity="1" fill-rule="nonzero"/></g><path fill="#ffffff" d="M 340.609375 30.964844 C 337.460938 28.992188 333.351562 29.527344 330.734375 32.140625 L 167.164062 195.660156 C 164.707031 197.953125 163.960938 201.691406 165.457031 204.890625 L 229.496094 340.074219 C 230.832031 342.902344 233.660156 344.664062 236.753906 344.664062 C 236.914062 344.664062 237.074219 344.664062 237.234375 344.664062 C 240.492188 344.449219 243.320312 342.3125 244.332031 339.21875 L 343.96875 40.359375 C 345.144531 36.785156 343.757812 32.941406 340.609375 30.964844 Z M 340.609375 30.964844 " fill-opacity="1" fill-rule="nonzero"/><g clip-path="url(#a3fdbb1780)"><path fill="#5271ff" d="M 342.050781 32.140625 C 339.914062 30.003906 336.710938 29.257812 333.832031 30.21875 L 34.972656 129.855469 C 31.875 130.871094 29.6875 133.699219 29.527344 136.953125 C 29.367188 140.210938 31.128906 143.253906 34.0625 144.691406 L 166.683594 207.507812 L 229.496094 340.125 C 232.273438 346.53125 242.359375 345.941406 244.332031 339.21875 L 343.96875 40.359375 C 344.929688 37.476562 344.183594 34.273438 342.050781 32.140625 Z M 306.773438 56.101562 L 171.058594 191.816406 L 58.988281 138.714844 Z M 235.472656 315.203125 L 182.371094 203.132812 L 318.085938 67.417969 Z M 235.472656 315.203125 " fill-opacity="1" fill-rule="nonzero"/></g></svg>